Coordinates
version=1
nRows=6
nColumns=63
inDegrees=yes

Units are S.I. units (second, meters, Newtons, ...)
If the header above contains a line with 'inDegrees', this indicates whether rotational values are in degrees (yes) or radians (no).

endheader
time	pelvis_tilt	pelvis_list	pelvis_rotation	pelvis_tx	pelvis_ty	pelvis_tz	hip_flexion_r	hip_adduction_r	hip_rotation_r	knee_angle_r	knee_angle_r_beta	ankle_angle_r	subtalar_angle_r	mtp_angle_r	hip_flexion_l	hip_adduction_l	hip_rotation_l	knee_angle_l	knee_angle_l_beta	ankle_angle_l	subtalar_angle_l	mtp_angle_l	L5_S1_Flex_Ext	L5_S1_Lat_Bending	L5_S1_axial_rotation	L4_L5_Flex_Ext	L4_L5_Lat_Bending	L4_L5_axial_rotation	L3_L4_Flex_Ext	L3_L4_Lat_Bending	L3_L4_axial_rotation	L2_L3_Flex_Ext	L2_L3_Lat_Bending	L2_L3_axial_rotation	L1_L2_Flex_Ext	L1_L2_Lat_Bending	L1_L2_axial_rotation	L1_T12_Flex_Ext	L1_T12_Lat_Bending	L1_T12_axial_rotation	Abs_r3	Abs_r2	Abs_r1	Abs_t1	Abs_t2	neck_flexion	neck_bending	neck_rotation	arm_flex_r	arm_add_r	arm_rot_r	elbow_flex_r	pro_sup_r	wrist_flex_r	wrist_dev_r	arm_flex_l	arm_add_l	arm_rot_l	elbow_flex_l	pro_sup_l	wrist_flex_l	wrist_dev_l
2.103448	-3.115163	-2.996530	88.866111	0.217652	0.854717	0.506254	-0.278454	-2.448879	-11.017955	7.265840	0.126813	41.709247	12.566709	0.000000	1.781034	2.452733	18.721140	2.281780	0.039825	36.444318	-17.065927	0.000000	0.212100	-0.216493	0.066790	0.393892	-0.287936	0.070964	0.348460	-0.526381	0.070964	0.242410	-0.526381	0.058441	0.196956	-0.441472	0.054267	0.121194	-0.335348	0.050092	1.515012	-2.449012	0.371465	0.000000	0.000000	25.902274	-3.532426	-2.302086	19.973805	-11.495791	134.903355	16.005582	17.762554	-5.480272	-7.472072	21.346413	-15.654698	102.032533	18.839736	61.601986	-4.805556	-7.650328
2.120690	-3.231132	-2.835042	89.070858	0.218363	0.854085	0.505843	-0.303688	-2.612286	-11.959001	7.833878	0.136727	42.100991	13.267188	0.000000	1.620949	2.496286	18.909828	2.306612	0.040258	36.537370	-16.898899	0.000000	0.195389	-0.255088	0.030582	0.362856	-0.339267	0.032494	0.321004	-0.620221	0.032494	0.223310	-0.620221	0.026760	0.181438	-0.520175	0.024848	0.111645	-0.395131	0.022937	1.395641	-2.885605	0.170090	0.000000	0.000000	25.946392	-3.564553	-3.064010	18.990286	-12.931424	139.787907	15.429143	13.609851	-6.014755	-7.766299	20.287253	-16.981861	110.474594	15.865228	55.228702	-5.038030	-7.879901
2.137931	-3.404500	-2.651652	89.186987	0.219252	0.853498	0.505370	-0.341803	-2.836201	-12.779830	8.393132	0.146488	42.510128	13.922678	0.000000	1.418241	2.595477	19.130187	2.296273	0.040078	36.665647	-16.747835	0.000000	0.177387	-0.302067	0.016940	0.329425	-0.401749	0.017999	0.291429	-0.734445	0.017999	0.202736	-0.734445	0.014823	0.164722	-0.615975	0.013764	0.101359	-0.467901	0.012705	1.267058	-3.417040	0.094216	0.000000	0.000000	25.915992	-3.539552	-3.891320	17.879633	-14.394677	143.989612	15.196752	9.974933	-6.311098	-7.873100	19.020707	-18.209292	119.596230	13.061502	47.737017	-4.772843	-7.925895
2.155172	-3.619665	-2.441486	89.170658	0.220323	0.852932	0.504826	-0.388373	-3.104647	-13.400650	8.944911	0.156118	42.944367	14.486157	0.000000	1.156260	2.738781	19.331905	2.252257	0.039309	36.839296	-16.611061	0.000000	0.156969	-0.354645	0.033313	0.291508	-0.471678	0.035395	0.257885	-0.862285	0.035395	0.179400	-0.862285	0.029149	0.145762	-0.723193	0.027067	0.089692	-0.549346	0.024985	1.121216	-4.011820	0.185277	0.000000	0.000000	25.830086	-3.508354	-4.841043	16.563440	-15.810513	146.964782	15.233740	7.279902	-6.457642	-7.724213	17.566080	-19.342278	128.393625	10.703947	39.618231	-4.261038	-7.650820
2.172414	-3.831546	-2.194106	89.037064	0.221411	0.852404	0.504210	-0.470623	-3.380759	-13.878599	9.466900	0.165229	43.392410	15.007165	0.000000	0.818392	2.897357	19.508100	2.183020	0.038101	37.049420	-16.511387	0.000000	0.133161	-0.402287	0.068149	0.247294	-0.535042	0.072408	0.218771	-0.978122	0.072408	0.152190	-0.978122	0.059630	0.123654	-0.820345	0.055371	0.076088	-0.623143	0.051112	0.951158	-4.550756	0.379024	0.000000	0.000000	25.669515	-3.441012	-5.579047	15.114764	-17.119684	148.940939	15.467921	4.312085	-6.390956	-7.433865	15.929289	-20.301829	136.202266	8.817855	31.476534	-3.409350	-7.333634
2.189655	-4.013838	-1.916995	88.769900	0.222459	0.851909	0.503522	-0.589318	-3.637679	-14.128234	9.938207	0.173454	43.831954	15.415834	0.000000	0.405443	3.051022	19.624090	2.088598	0.036453	37.301395	-16.439392	0.000000	0.106783	-0.439806	0.118787	0.198307	-0.584942	0.126212	0.175434	-1.069344	0.126212	0.122042	-1.069344	0.103939	0.099159	-0.896852	0.096515	0.061016	-0.681259	0.089091	0.762740	-4.975172	0.660660	0.000000	0.000000	25.454014	-3.322719	-5.989907	13.473208	-18.293534	149.314029	15.851215	1.944453	-6.152001	-6.921688	14.153233	-21.044618	142.715879	7.511195	23.392449	-2.343418	-6.935820
